<?xml version="1.0" encoding="UTF-8" standalone="no"?>
<!-- Created with Inkscape (http://www.inkscape.org/) -->

<svg
   xmlns:dc="http://purl.org/dc/elements/1.1/"
   xmlns:cc="http://creativecommons.org/ns#"
   xmlns:rdf="http://www.w3.org/1999/02/22-rdf-syntax-ns#"
   xmlns:svg="http://www.w3.org/2000/svg"
   xmlns="http://www.w3.org/2000/svg"
   xmlns:sodipodi="http://sodipodi.sourceforge.net/DTD/sodipodi-0.dtd"
   xmlns:inkscape="http://www.inkscape.org/namespaces/inkscape"
   width="400"
   height="400"
   id="svg3156"
   version="1.1"
   inkscape:version="0.48.4 r9939"
   sodipodi:docname="New document 2">
  <defs
     id="defs3158" />
  <sodipodi:namedview
     id="base"
     pagecolor="#ffffff"
     bordercolor="#666666"
     borderopacity="1.0"
     inkscape:pageopacity="0.0"
     inkscape:pageshadow="2"
     inkscape:zoom="0.35"
     inkscape:cx="375"
     inkscape:cy="520"
     inkscape:document-units="px"
     inkscape:current-layer="layer1"
     showgrid="false"
     inkscape:window-width="1152"
     inkscape:window-height="736"
     inkscape:window-x="4"
     inkscape:window-y="124"
     inkscape:window-maximized="0" />
  <metadata
     id="metadata3161">
    <rdf:RDF>
      <cc:Work
         rdf:about="">
        <dc:format>image/svg+xml</dc:format>
        <dc:type
           rdf:resource="http://purl.org/dc/dcmitype/StillImage" />
        <dc:title></dc:title>
      </cc:Work>
    </rdf:RDF>
  </metadata>
  <g
     inkscape:label="Layer 1"
     inkscape:groupmode="layer"
     id="layer1"
     transform="translate(0,-652.36218)">
    <g
       transform="matrix(1.4869888,0,0,1.369863,-1640.1487,-271.42163)"
       id="g3121">
      <rect
         ry="3.7510548"
         rx="0.87073153"
         y="674.36218"
         x="1103"
         height="292"
         width="269"
         id="rect26640"
         style="color:#000000;fill:#3c6eb4;fill-opacity:1;fill-rule:nonzero;stroke:none;stroke-width:2;marker:none;visibility:visible;display:inline;overflow:visible;enable-background:accumulate"
         inkscape:export-filename="/home/duffy/Documents/Work/Fedora/Fedora cloud Logo Idea/fcloud.png"
         inkscape:export-xdpi="90"
         inkscape:export-ydpi="90" />
      <path
         inkscape:connector-curvature="0"
         d="m 1337.9976,795.36497 c 0,-13.80689 -11.1925,-24.99977 -24.9994,-24.99977 -13.8005,0 -24.9886,11.18368 -24.9986,24.98216 l 0,-0.002 0,19.34567 0,0.002 c 0.01,3.13279 2.5483,5.66912 5.6833,5.66912 0.01,0 0.018,-0.002 0.027,-0.002 l 0,0.002 19.2965,0 0,0 c 13.8029,-0.005 24.9898,-11.19449 24.9898,-24.99737 z"
         id="path26642"
         style="fill:#ffffff;fill-opacity:1;stroke:#808080;stroke-width:3;stroke-miterlimit:4;stroke-opacity:1;stroke-dasharray:none"
         inkscape:export-filename="/home/duffy/Documents/Work/Fedora/Fedora cloud Logo Idea/fcloud.png"
         inkscape:export-xdpi="90"
         inkscape:export-ydpi="90" />
      <path
         inkscape:connector-curvature="0"
         d="m 1301.0016,776.36458 c 0,-27.61537 -22.3862,-50.0024 -50.0016,-50.0024 -27.6026,0 -49.98,22.36861 -50,49.96716 l 0,-0.002 0,38.69356 0,0.002 c 0.015,6.26592 5.097,11.33888 11.3673,11.33888 0.018,0 0.035,-0.002 0.054,-0.002 l 0,0.002 38.5951,0 0,0 c 27.6073,-0.0112 49.9823,-22.39024 49.9823,-49.9976 z"
         id="path26644"
         style="fill:#ffffff;fill-opacity:1;stroke:#808080;stroke-width:3;stroke-miterlimit:4;stroke-opacity:1;stroke-dasharray:none"
         inkscape:export-filename="/home/duffy/Documents/Work/Fedora/Fedora cloud Logo Idea/fcloud.png"
         inkscape:export-xdpi="90"
         inkscape:export-ydpi="90" />
      <path
         style="fill:#ffffff;fill-opacity:1;stroke:#808080;stroke-width:3;stroke-miterlimit:4;stroke-opacity:1;stroke-dasharray:none"
         id="path26646"
         d="m 1221.9989,773.8652 c 0,-20.71092 -16.7892,-37.50069 -37.5001,-37.50069 -20.7013,0 -37.4839,16.77596 -37.4989,37.47425 l -10e-4,-0.002 0,29.0193 10e-4,0.002 c 0.011,4.6993 3.8227,8.5039 8.5253,8.5039 0.013,0 0.026,-0.002 0.04,-0.002 l 0,0.002 28.9454,0 0,0 c 20.7049,-0.008 37.4857,-16.79219 37.4857,-37.49708 z"
         inkscape:connector-curvature="0"
         inkscape:export-filename="/home/duffy/Documents/Work/Fedora/Fedora cloud Logo Idea/fcloud.png"
         inkscape:export-xdpi="90"
         inkscape:export-ydpi="90" />
      <g
         transform="matrix(0.34002376,0,0,0.34002376,1039.491,766.38983)"
         id="g26678"
         inkscape:export-filename="/home/duffy/Documents/Work/Fedora/Fedora cloud Logo Idea/fcloud.png"
         inkscape:export-xdpi="90"
         inkscape:export-ydpi="90">
        <path
           inkscape:connector-curvature="0"
           d="m 417.95837,367.2574 0,3.85274 c 0,0.25813 -0.15615,0.41428 -0.46844,0.46845 l -0.0335,0 c -0.2645,0 -0.42702,-0.16411 -0.48757,-0.49235 l 0,-6.10894 c 0.0382,-0.35372 0.18801,-0.53058 0.44933,-0.53059 l 0.0717,0 c 0.2645,1e-5 0.44136,0.18802 0.53059,0.56405 l 2.19405,4.90436 c 0.0287,-0.11153 0.50987,-1.23166 1.44359,-3.36039 l 0.89866,-1.93593 c 0.10833,-0.11472 0.22625,-0.17208 0.35372,-0.17209 l 0.0717,0 c 0.26129,1e-5 0.41108,0.17687 0.44932,0.53059 l 0,6.10894 c -0.0605,0.32824 -0.22307,0.49235 -0.48757,0.49235 l -0.0335,0 c -0.31231,-0.0542 -0.46846,-0.21032 -0.46845,-0.46845 l 0,-3.85752 c -1.18546,2.68322 -1.80528,4.06785 -1.85946,4.15389 -0.13065,0.11472 -0.25812,0.17208 -0.3824,0.17208 -0.28043,0 -0.51147,-0.28362 -0.69312,-0.85085 l -1.54874,-3.47034 m -6.50566,-2.82981 4.47415,0 c 0.30274,0.0573 0.45411,0.21352 0.45411,0.46845 l 0,0.0717 c 0,0.26133 -0.17687,0.41109 -0.53059,0.44934 l -1.66347,0 0,5.69307 c 0,0.25813 -0.15934,0.41427 -0.47801,0.46844 l -0.0239,0 c -0.26451,0 -0.42702,-0.1641 -0.48757,-0.49234 l 0,-5.66917 -1.7017,0 c -0.32824,-0.0637 -0.49236,-0.23582 -0.49236,-0.51626 0.0701,-0.31548 0.21989,-0.47322 0.44934,-0.47323"
           id="path26680"
           style="font-size:11.72808552px;font-style:normal;font-variant:normal;font-weight:bold;font-stretch:expanded;text-align:start;line-height:89.99999762%;writing-mode:lr-tb;text-anchor:start;fill:#3c6eb4;fill-opacity:1;stroke:none;font-family:Comfortaa;-inkscape-font-specification:Comfortaa Bold Expanded" />
        <path
           inkscape:connector-curvature="0"
           d="m 425.0016,326.36458 c 0,-27.61537 -22.38623,-50.0024 -50.0016,-50.0024 -27.60256,0 -49.97998,22.36861 -50,49.96716 l -0.002,-0.002 0,38.69356 0.002,0.002 c 0.0152,6.26592 5.09699,11.33888 11.36731,11.33888 0.0176,0 0.0352,-0.002 0.0537,-0.002 l 0.003,0.002 38.59505,0 0,0 c 27.60736,-0.0112 49.98237,-22.39024 49.98237,-49.9976 z"
           id="path26682"
           style="fill:#294172;fill-opacity:1" />
        <path
           inkscape:connector-curvature="0"
           d="m 389.68068,288.21485 c -12.96113,0 -23.46746,10.50633 -23.46746,23.46745 0,0.005 0,0.0104 0,0.0168 l 0,12.42131 -12.38207,0 c -0.002,0 -0.002,0 -0.004,0 -12.96192,0 -23.46746,10.45508 -23.46746,23.4146 0,12.96113 10.50554,23.46826 23.46746,23.46826 12.96032,0 23.46746,-10.50794 23.46746,-23.46826 0,-0.004 0,-0.0104 0,-0.0152 l 0,-12.47417 12.38126,0 c 0.002,0 0.004,0 0.005,0 12.96032,0 23.46746,-10.40221 23.46746,-23.36334 0,-12.96112 -10.50714,-23.46745 -23.46746,-23.46745 z m -23.46666,59.34101 c -0.0112,6.83096 -5.55351,12.36684 -12.38607,12.36684 -6.84057,0 -12.43733,-5.5463 -12.43733,-12.38687 0,-6.84137 5.59676,-12.49099 12.43733,-12.49099 0.006,0 0.012,0.002 0.0168,0.002 l 10.61285,0 c 0.003,0 0.006,-0.002 0.008,-0.002 0.9659,0 1.74999,0.78169 1.74999,1.74759 0,8e-4 -8e-4,0.002 -8e-4,0.004 l 0,10.75943 -8e-4,0 z m 23.46586,-23.43623 c -0.004,0 -0.008,0 -0.012,0 l -10.62006,0 c -0.002,0 -0.005,0 -0.005,0 -0.9675,0 -1.74919,-0.78329 -1.74919,-1.74918 l 0,-0.002 0,-10.70736 c 0.012,-6.83336 5.55271,-12.36685 12.38527,-12.36685 6.84138,0 12.43893,5.5455 12.43893,12.38768 0.002,6.84057 -5.59675,12.43732 -12.43812,12.43732 z"
           id="path26684"
           style="fill:#3c6eb4;fill-opacity:1" />
        <path
           inkscape:connector-curvature="0"
           d="m 366.21402,324.11963 0,-12.42131 c 0,-0.006 0,-0.012 0,-0.0168 0,-12.96112 10.50633,-23.46746 23.46746,-23.46746 1.96703,0 3.36382,0.22025 5.18509,0.6976 2.65341,0.69519 4.82147,2.86965 4.82228,5.40133 8e-4,3.05948 -2.22013,5.2836 -5.5391,5.2836 -1.58179,0 -2.15284,-0.30274 -4.46907,-0.30274 -6.83257,0 -12.37326,5.53348 -12.38527,12.36685 l 0,10.70736 0,0.002 c 0,0.9659 0.78168,1.74919 1.74918,1.74919 0,0 0.003,0 0.005,0 l 8.13324,0 c 3.03144,0 5.47822,2.42516 5.48062,5.46381 0,3.04105 -2.44998,5.4614 -5.48062,5.4614 l -9.88723,0 0,12.47417 c 0,0.005 0,0.0112 0,0.0168 0,12.95952 -10.50714,23.46666 -23.46746,23.46666 -1.96624,0 -3.36382,-0.22185 -5.18429,-0.69759 -2.65342,-0.69439 -4.82228,-2.87046 -4.82308,-5.40134 0,-3.05947 2.22012,-5.2844 5.53989,-5.2844 1.5802,0 2.15285,0.30354 4.46748,0.30354 6.83256,0 12.37485,-5.53428 12.38687,-12.36685 0,0 0,-10.76262 0,-10.76262 0,-0.9643 -0.78409,-1.74598 -1.74999,-1.74598 -0.002,0 -0.002,0 -0.005,0 l -8.13244,-0.002 c -3.03144,0 -5.48142,-2.41874 -5.48142,-5.4582 -0.002,-3.05867 2.47481,-5.46701 5.53909,-5.46701 l 9.82876,0 0,0 z"
           id="path26686"
           style="fill:#ffffff" />
      </g>
      <text
         sodipodi:linespacing="125%"
         id="text26688"
         y="893.36218"
         x="1192"
         style="font-size:40px;font-style:normal;font-variant:normal;font-weight:500;font-stretch:normal;line-height:125%;letter-spacing:0px;word-spacing:0px;fill:#000000;fill-opacity:1;stroke:none;font-family:Caslon;-inkscape-font-specification:Caslon Medium"
         xml:space="preserve"
         inkscape:export-filename="/home/duffy/Documents/Work/Fedora/Fedora cloud Logo Idea/fcloud.png"
         inkscape:export-xdpi="90"
         inkscape:export-ydpi="90"><tspan
           style="font-style:normal;font-variant:normal;font-weight:normal;font-stretch:normal;fill:#ffffff;font-family:Comfortaa;-inkscape-font-specification:Comfortaa"
           y="893.36218"
           x="1192"
           id="tspan26690"
           sodipodi:role="line">CLOUD</tspan></text>
    </g>
  </g>
</svg>
